<mxfile host="65bd71144e">
    <diagram id="WiGQS7dhg83cZKYmcUeT" name="Page-1">
        <mxGraphModel dx="1174" dy="787" grid="1" gridSize="10" guides="1" tooltips="1" connect="1" arrows="1" fold="1" page="1" pageScale="1" pageWidth="850" pageHeight="1100" math="0" shadow="0">
            <root>
                <mxCell id="0"/>
                <mxCell id="1" parent="0"/>
                <mxCell id="2" value="Study stage" style="rounded=0;whiteSpace=wrap;html=1;fontStyle=1" parent="1" vertex="1">
                    <mxGeometry x="350" y="100" width="90" height="60" as="geometry"/>
                </mxCell>
                <mxCell id="3" value="" style="endArrow=none;html=1;exitX=0.5;exitY=0;exitDx=0;exitDy=0;" parent="1" source="5" edge="1">
                    <mxGeometry width="50" height="50" relative="1" as="geometry">
                        <mxPoint x="320" y="220" as="sourcePoint"/>
                        <mxPoint x="390" y="160" as="targetPoint"/>
                    </mxGeometry>
                </mxCell>
                <mxCell id="4" value="" style="endArrow=none;html=1;exitX=0.5;exitY=0;exitDx=0;exitDy=0;" parent="1" source="6" edge="1">
                    <mxGeometry width="50" height="50" relative="1" as="geometry">
                        <mxPoint x="460" y="220" as="sourcePoint"/>
                        <mxPoint x="390" y="160" as="targetPoint"/>
                    </mxGeometry>
                </mxCell>
                <mxCell id="5" value="Data sharing orientation" style="rounded=0;whiteSpace=wrap;html=1;fontStyle=1" parent="1" vertex="1">
                    <mxGeometry x="170" y="220" width="90" height="60" as="geometry"/>
                </mxCell>
                <mxCell id="6" value="Data sharing orientation" style="rounded=0;whiteSpace=wrap;html=1;fontStyle=1" parent="1" vertex="1">
                    <mxGeometry x="540" y="220" width="90" height="60" as="geometry"/>
                </mxCell>
                <mxCell id="7" value="Resources for data sharing" style="rounded=0;whiteSpace=wrap;html=1;fontStyle=1" parent="1" vertex="1">
                    <mxGeometry x="100" y="340" width="90" height="60" as="geometry"/>
                </mxCell>
                <mxCell id="8" value="Resources for data sharing" style="rounded=0;whiteSpace=wrap;html=1;fontStyle=1" parent="1" vertex="1">
                    <mxGeometry x="240" y="340" width="90" height="60" as="geometry"/>
                </mxCell>
                <mxCell id="9" value="Resources for data sharing" style="rounded=0;whiteSpace=wrap;html=1;fontStyle=1" parent="1" vertex="1">
                    <mxGeometry x="410" y="340" width="90" height="60" as="geometry"/>
                </mxCell>
                <mxCell id="10" value="Resources for data sharing" style="rounded=0;whiteSpace=wrap;html=1;fontStyle=1" parent="1" vertex="1">
                    <mxGeometry x="590" y="340" width="90" height="60" as="geometry"/>
                </mxCell>
                <mxCell id="12" value="" style="endArrow=none;html=1;exitX=0.5;exitY=0;exitDx=0;exitDy=0;entryX=0.5;entryY=1;entryDx=0;entryDy=0;" parent="1" source="7" target="5" edge="1">
                    <mxGeometry width="50" height="50" relative="1" as="geometry">
                        <mxPoint x="132.5" y="340" as="sourcePoint"/>
                        <mxPoint x="257.5" y="280" as="targetPoint"/>
                    </mxGeometry>
                </mxCell>
                <mxCell id="13" value="" style="endArrow=none;html=1;exitX=0.5;exitY=0;exitDx=0;exitDy=0;" parent="1" source="9" edge="1">
                    <mxGeometry width="50" height="50" relative="1" as="geometry">
                        <mxPoint x="480" y="340" as="sourcePoint"/>
                        <mxPoint x="542.5" y="280" as="targetPoint"/>
                    </mxGeometry>
                </mxCell>
                <mxCell id="14" value="" style="endArrow=none;html=1;exitX=0.5;exitY=0;exitDx=0;exitDy=0;" parent="1" source="8" edge="1">
                    <mxGeometry width="50" height="50" relative="1" as="geometry">
                        <mxPoint x="322.5" y="340" as="sourcePoint"/>
                        <mxPoint x="220" y="280" as="targetPoint"/>
                    </mxGeometry>
                </mxCell>
                <mxCell id="15" value="" style="endArrow=none;html=1;exitX=0.5;exitY=0;exitDx=0;exitDy=0;" parent="1" source="10" edge="1">
                    <mxGeometry width="50" height="50" relative="1" as="geometry">
                        <mxPoint x="605" y="340" as="sourcePoint"/>
                        <mxPoint x="540" y="280" as="targetPoint"/>
                    </mxGeometry>
                </mxCell>
                <mxCell id="16" value="Early" style="text;strokeColor=none;align=center;fillColor=none;html=1;verticalAlign=middle;whiteSpace=wrap;rounded=0;" parent="1" vertex="1">
                    <mxGeometry x="260" y="160" width="60" height="30" as="geometry"/>
                </mxCell>
                <mxCell id="17" value="Late" style="text;strokeColor=none;align=center;fillColor=none;html=1;verticalAlign=middle;whiteSpace=wrap;rounded=0;" parent="1" vertex="1">
                    <mxGeometry x="470" y="160" width="60" height="30" as="geometry"/>
                </mxCell>
                <mxCell id="18" value="Results-support" style="text;strokeColor=none;align=center;fillColor=none;html=1;verticalAlign=middle;whiteSpace=wrap;rounded=0;" parent="1" vertex="1">
                    <mxGeometry x="110" y="290" width="120" height="30" as="geometry"/>
                </mxCell>
                <mxCell id="20" value="Results-support" style="text;strokeColor=none;align=center;fillColor=none;html=1;verticalAlign=middle;whiteSpace=wrap;rounded=0;" parent="1" vertex="1">
                    <mxGeometry x="400" y="290" width="120" height="30" as="geometry"/>
                </mxCell>
                <mxCell id="21" value="Dataset-sharing" style="text;strokeColor=none;align=center;fillColor=none;html=1;verticalAlign=middle;whiteSpace=wrap;rounded=0;" parent="1" vertex="1">
                    <mxGeometry x="280" y="290" width="120" height="30" as="geometry"/>
                </mxCell>
                <mxCell id="22" value="Dataset-sharing" style="text;strokeColor=none;align=center;fillColor=none;html=1;verticalAlign=middle;whiteSpace=wrap;rounded=0;" parent="1" vertex="1">
                    <mxGeometry x="560" y="290" width="120" height="30" as="geometry"/>
                </mxCell>
                <mxCell id="23" value="" style="endArrow=none;html=1;exitX=0.5;exitY=0;exitDx=0;exitDy=0;" parent="1" edge="1">
                    <mxGeometry width="50" height="50" relative="1" as="geometry">
                        <mxPoint x="80" y="460" as="sourcePoint"/>
                        <mxPoint x="142.5" y="400" as="targetPoint"/>
                    </mxGeometry>
                </mxCell>
                <mxCell id="24" value="" style="endArrow=none;html=1;exitX=0.5;exitY=0;exitDx=0;exitDy=0;" parent="1" edge="1">
                    <mxGeometry width="50" height="50" relative="1" as="geometry">
                        <mxPoint x="210" y="460" as="sourcePoint"/>
                        <mxPoint x="145" y="400" as="targetPoint"/>
                    </mxGeometry>
                </mxCell>
            </root>
        </mxGraphModel>
    </diagram>
</mxfile>